<svg width="500" height="500" viewBox="0 0 500 500" xmlns="http://www.w3.org/2000/svg">
  <!-- Quaver (Eighth Note) -->
  <path d="M50 100 C50 140 50 180 50 220 C50 240 65 250 80 250 C95 250 110 240 110 220 C110 200 95 190 80 190 C75 190 70 191 65 193 L65 100 C62 95 55 90 50 85" fill="#FFFFFF" opacity="0.5" />
  
  <!-- Another Quaver (Eighth Note) -->
  <path d="M200 200 C200 240 200 280 200 320 C200 340 215 350 230 350 C245 350 260 340 260 320 C260 300 245 290 230 290 C225 290 220 291 215 293 L215 200 C212 195 205 190 200 185" fill="#FFFFFF" opacity="0.5" />
  
  <!-- Quarter Note -->
  <path d="M350 150 C350 190 350 230 350 270 C350 290 365 300 380 300 C395 300 410 290 410 270 C410 250 395 240 380 240 C375 240 370 241 365 243 L365 150 Z" fill="#FFFFFF" opacity="0.5" />

  <!-- Music Rest -->
  <path d="M150 380 Q155 370 160 380 L150 410 L160 410 L150 440 Q145 450 140 440 L150 410 L140 410 Z" fill="#FFFFFF" opacity="0.5" />
  
  <!-- Treble Clef (Simplified) -->
  <path d="M300 400 C295 380 290 360 290 340 C290 320 300 310 310 310 C320 310 330 320 330 340 C330 370 310 390 290 400 C280 405 270 410 270 420 C270 430 280 440 290 440 C300 440 310 430 310 420" fill="none" stroke="#FFFFFF" stroke-width="3" opacity="0.5" />
</svg>
